# xmcd
#
# Track frame offsets:
#	150
#	17372
#	38642
#	55875
#	68347
#	80267
#	93305
#	110307
#
# Disc length: 1669 seconds
#
# Revision: 0
# Processed by: cddbd v1.4b41PL3 Copyright (c) Steve Scherf et al.
# Submitted via: audiograbber 1.80
#
DISCID=4d068308
DTITLE=Kernaghan Lee - Three Chain Road - Bonus Tracks
DYEAR=1900
DGENRE=
TTITLE0=Save the land
TTITLE1=Copperhead Road
TTITLE2=Comin' down with you
TTITLE3=Boys from Bathurst
TTITLE4=Saddle Boy
TTITLE5=Boys from the bush
TTITLE6=She's my ute
TTITLE7=Still feels like Christmas time to me
EXTD=
EXTT0=
EXTT1=
EXTT2=
EXTT3=
EXTT4=
EXTT5=
EXTT6=
EXTT7=
PLAYORDER=
